<?xml version="1.0" encoding="UTF-8"?>
<svg version="1.1" xmlns="http://www.w3.org/2000/svg" width="457" height="439">
<path d="M0 0 C0.88236328 0.17160645 1.76472656 0.34321289 2.67382812 0.52001953 C41.46381087 8.14580848 78.03042641 25.07021219 108 51 C108.78117187 51.6703125 109.56234375 52.340625 110.3671875 53.03125 C112.95838489 55.30810541 115.48620794 57.63781111 118 60 C118.55703613 60.52303711 119.11407227 61.04607422 119.68798828 61.58496094 C129.58587924 70.95854845 138.07859683 80.91535194 146 92 C146.44150391 92.6074707 146.88300781 93.21494141 147.33789062 93.84082031 C164.75439719 117.95907019 176.0317074 145.94714024 182 175 C182.16226074 175.73847168 182.32452148 176.47694336 182.49169922 177.23779297 C189.82784582 211.76840663 186.15604496 250.79945729 175 284 C174.5671167 285.28849854 174.5671167 285.28849854 174.12548828 286.60302734 C167.4296836 306.08930369 158.09266188 324.31135821 146 341 C145.59426758 341.56122559 145.18853516 342.12245117 144.77050781 342.70068359 C138.73057917 350.97026075 132.09145746 358.61467874 125 366 C124.46358887 366.56364258 123.92717773 367.12728516 123.37451172 367.70800781 C91.91252214 400.61454153 50.41959529 421.96009894 6.1875 431.8125 C5.31818848 432.0074707 4.44887695 432.20244141 3.55322266 432.40332031 C-11.97551248 435.66616738 -27.36905604 436.37731974 -43.1875 436.3125 C-44.13598816 436.31034485 -45.08447632 436.3081897 -46.06170654 436.30596924 C-59.90435592 436.25551142 -73.4188076 435.91688732 -87 433 C-87.99547852 432.79068848 -88.99095703 432.58137695 -90.01660156 432.36572266 C-128.82408426 424.02453418 -164.80240454 408.12707319 -195 382 C-195.78117187 381.3296875 -196.56234375 380.659375 -197.3671875 379.96875 C-199.95838489 377.69189459 -202.48620794 375.36218889 -205 373 C-205.55703613 372.47696289 -206.11407227 371.95392578 -206.68798828 371.41503906 C-216.58587924 362.04145155 -225.07859683 352.08464806 -233 341 C-233.44150391 340.3925293 -233.88300781 339.78505859 -234.33789062 339.15917969 C-251.75439719 315.04092981 -263.0317074 287.05285976 -269 258 C-269.24339111 256.89229248 -269.24339111 256.89229248 -269.49169922 255.76220703 C-276.82784582 221.23159337 -273.15604496 182.20054271 -262 149 C-261.71141113 148.14100098 -261.42282227 147.28200195 -261.12548828 146.39697266 C-254.4296836 126.91069631 -245.09266188 108.68864179 -233 92 C-232.59426758 91.43877441 -232.18853516 90.87754883 -231.77050781 90.29931641 C-225.73057917 82.02973925 -219.09145746 74.38532126 -212 67 C-211.46358887 66.43635742 -210.92717773 65.87271484 -210.37451172 65.29199219 C-202.15626752 56.69641596 -193.58460073 49.03729154 -184 42 C-182.9996875 41.25492188 -181.999375 40.50984375 -180.96875 39.7421875 C-152.80096285 19.48751581 -120.93410511 6.5996753 -87 0 C-86.20271484 -0.16516113 -85.40542969 -0.33032227 -84.58398438 -0.50048828 C-57.98644059 -5.84542279 -26.53249892 -5.49632405 0 0 Z " fill="#FBEDFB" transform="translate(272,3)"/>
<path d="M0 0 C8.70337839 5.25203869 13.38042356 13.68885873 17.71875 22.640625 C18.53329608 25.95291076 18.84677779 29.03640038 18.8515625 32.44140625 C18.85285156 33.33666016 18.85414063 34.23191406 18.85546875 35.15429688 C18.85160156 36.07791016 18.84773437 37.00152344 18.84375 37.953125 C18.84761719 38.86513672 18.85148438 39.77714844 18.85546875 40.71679688 C18.84772657 46.11696422 18.50793586 51.29796198 17.71875 56.640625 C18.25242187 56.94613281 18.78609375 57.25164062 19.3359375 57.56640625 C36.47583833 68.09350797 45.65656457 86.47129078 52.71875 104.640625 C53.37230469 106.24550781 53.37230469 106.24550781 54.0390625 107.8828125 C59.50072796 123.50393958 58.29114791 142.88598973 53.71875 158.640625 C53.38875 159.300625 53.05875 159.960625 52.71875 160.640625 C53.77191406 160.60582031 54.82507813 160.57101563 55.91015625 160.53515625 C71.51682997 160.17606787 87.58713886 162.57481943 101.71875 169.640625 C104.09806445 133.06968072 88.37973748 102.06600871 65.95703125 74.47265625 C64.13481895 71.77670177 64.31402615 69.81096182 64.71875 66.640625 C65.71875 64.765625 65.71875 64.765625 67.71875 63.640625 C74.7005638 62.85680391 74.7005638 62.85680391 78.7734375 65.9921875 C79.73902231 67.06085071 80.67816162 68.15382781 81.59375 69.265625 C82.10349365 69.85537109 82.6132373 70.44511719 83.13842773 71.05273438 C84.69970008 72.88981125 86.21473323 74.75649403 87.71875 76.640625 C88.38076416 77.45805176 88.38076416 77.45805176 89.05615234 78.29199219 C99.10420421 90.89751894 107.04933874 105.70100287 112.21875 120.953125 C112.43756836 121.59604492 112.65638672 122.23896484 112.88183594 122.90136719 C117.39757145 137.34744052 118.17890036 151.48973324 118.00366211 166.50439453 C117.91562192 176.28191577 118.77427424 184.1543224 122.56095886 193.22233582 C124.67732915 198.29296818 125.62739389 202.48894192 125.34375 207.953125 C125.3219165 208.70601807 125.30008301 209.45891113 125.27758789 210.23461914 C124.69574296 222.3004503 119.10513072 233.88569218 110.28125 242.203125 C107.06337935 244.83990445 103.61474567 246.94410138 100.05615234 249.07641602 C90.6153009 254.7376143 83.21086674 261.12648835 76.09716797 269.56396484 C56.81468254 292.31089007 24.10997673 306.90248044 -5.33935547 309.47070312 C-11.83657041 309.84597795 -18.33754038 309.88541445 -24.84375 309.890625 C-25.60203094 309.89129974 -26.36031189 309.89197449 -27.14157104 309.89266968 C-38.15147081 309.87710192 -48.58580365 309.48893103 -59.28125 306.640625 C-59.95784668 306.46901855 -60.63444336 306.29741211 -61.33154297 306.12060547 C-89.83354212 298.82059699 -119.3174028 283.50267697 -137.46875 259.578125 C-140.95888758 255.34072875 -145.48248455 252.94382633 -150.15625 250.203125 C-162.46225879 242.98343427 -172.5331916 233.933397 -176.28125 219.640625 C-176.72226458 215.69453717 -176.7461121 211.79563017 -176.71875 207.828125 C-176.73873047 206.81169922 -176.75871094 205.79527344 -176.77929688 204.74804688 C-176.77517446 198.27997137 -175.75939351 193.16706956 -173.23852539 187.2043457 C-171.3183648 182.06188043 -171.14138282 176.95645633 -171.03515625 171.51171875 C-171.00218059 170.132156 -170.96896965 168.75259886 -170.93554688 167.37304688 C-170.88856828 165.23661609 -170.84416038 163.10020155 -170.80444336 160.96362305 C-170.62486212 151.72110363 -170.00987865 142.7470006 -168.28125 133.640625 C-168.12599854 132.81860596 -167.97074707 131.99658691 -167.81079102 131.1496582 C-162.9085725 107.35608846 -150.39299988 82.98537489 -132.28125 66.640625 C-131.641875 66.00125 -131.0025 65.361875 -130.34375 64.703125 C-126.85727882 62.90706409 -124.17434647 63.20805873 -120.28125 63.640625 C-118.21875 65.265625 -118.21875 65.265625 -117.28125 67.640625 C-117.53673962 73.07558603 -119.8728604 76.14961933 -123.28125 80.140625 C-143.64189122 105.08000674 -154.94366115 134.33785423 -156.28125 166.640625 C-155.44980469 166.2075 -155.44980469 166.2075 -154.6015625 165.765625 C-153.87710938 165.394375 -153.15265625 165.023125 -152.40625 164.640625 C-151.32730469 164.08375 -151.32730469 164.08375 -150.2265625 163.515625 C-148.28125 162.640625 -148.28125 162.640625 -146.28125 162.640625 C-146.28125 161.980625 -146.28125 161.320625 -146.28125 160.640625 C-144.69826974 160.1602932 -143.11485022 159.68140888 -141.53125 159.203125 C-140.64953125 158.93628906 -139.7678125 158.66945312 -138.859375 158.39453125 C-134.85739848 157.2242563 -131.44798421 156.51325683 -127.25390625 156.5078125 C-126.29677734 156.50652344 -125.33964844 156.50523437 -124.35351562 156.50390625 C-122.86368164 156.50970703 -122.86368164 156.50970703 -121.34375 156.515625 C-120.35439453 156.51175781 -119.36503906 156.50789062 -118.34570312 156.50390625 C-117.38728516 156.50519531 -116.42886719 156.50648438 -115.44140625 156.5078125 C-114.57136963 156.50894043 -113.70133301 156.51006836 -112.80493164 156.51123047 C-110.21118466 156.6442174 -107.81159439 157.06924776 -105.28125 157.640625 C-106.01021484 155.85011719 -106.01021484 155.85011719 -106.75390625 154.0234375 C-108.88625399 147.5924677 -108.77294295 141.23338315 -108.71875 134.515625 C-108.71190186 133.22406494 -108.70505371 131.93250488 -108.69799805 130.60180664 C-108.54169142 121.31883204 -107.66507332 113.34980962 -104.28125 104.640625 C-103.73791016 103.10728516 -103.73791016 103.10728516 -103.18359375 101.54296875 C-98.27066265 88.63611586 -90.32626878 76.0033695 -80.07421875 66.671875 C-79.52024414 66.15761963 -78.96626953 65.64336426 -78.39550781 65.11352539 C-77.30383615 64.11388603 -76.19037624 63.13737451 -75.05371094 62.18920898 C-72.92719708 60.24398621 -71.34223097 58.60603885 -71.15527344 55.64624023 C-71.3365104 54.12779115 -71.56843564 52.61483597 -71.84106445 51.11010742 C-73.94746775 39.29298632 -74.04110714 24.86707554 -67.28125 14.640625 C-49.83238966 -8.61327205 -25.34157319 -13.45454659 0 0 Z " fill="#BE1FCC" transform="translate(256.28125,74.359375)"/>
<path d="M0 0 C9.36509151 1.92104441 15.5749493 10.06211498 20.68359375 17.58935547 C31.95138796 35.02972642 39.28118134 55.2229436 35.62060547 76.17114258 C32.83271196 88.13242525 26.22254252 99.19351765 15.8125 105.9375 C14.56663814 106.66927991 13.29388438 107.35693171 12 108 C11.27554688 108.36480469 10.55109375 108.72960937 9.8046875 109.10546875 C5.94541017 110.33635247 2.34208499 110.38294213 -1.6875 110.375 C-2.48607422 110.37411377 -3.28464844 110.37322754 -4.10742188 110.37231445 C-10.21686306 110.25010081 -15.80121767 109.46972303 -21 106 C-21.66 105.01 -22.32 104.02 -23 103 C-22.1780069 100.27881707 -21.28234775 97.7957442 -20.1875 95.1875 C-14.36613278 80.99382935 -14.49856377 66.55687884 -20.1015625 52.171875 C-22.59946451 46.78929906 -25.28940681 42.65311309 -30 39 C-33.7578823 38.23308524 -35.25290483 38.5098675 -38.453125 40.609375 C-41.39666457 43.37232932 -43.00845113 46.27212066 -44.6875 49.875 C-44.98205078 50.47441406 -45.27660156 51.07382813 -45.58007812 51.69140625 C-50.80847759 62.52417997 -52.47159832 74.9293856 -48.69140625 86.58984375 C-47.69691314 89.30204202 -46.5796897 91.941444 -45.41015625 94.58203125 C-44.08773583 97.78734389 -43.4146684 100.57242445 -43 104 C-44.24556092 104.81928886 -45.49666635 105.63015186 -46.75 106.4375 C-47.44609375 106.88996094 -48.1421875 107.34242188 -48.859375 107.80859375 C-55.90442152 111.72965066 -66.24765951 111.07253655 -74 110 C-78.36362825 108.33460621 -81.53259562 106.09633128 -85 103 C-85.67289063 102.43667969 -86.34578125 101.87335938 -87.0390625 101.29296875 C-94.15932064 94.82413848 -99.25578942 85.16694748 -100.25488281 75.54541016 C-100.32927482 73.02352117 -100.31208243 70.52209866 -100.25 68 C-100.24484375 67.16210938 -100.2396875 66.32421875 -100.234375 65.4609375 C-99.94798973 42.33532671 -90.55203766 22.31913413 -74.72265625 5.59375 C-70.9792275 2.08036435 -70.9792275 2.08036435 -69 1 C-65.75914125 1.26125925 -64.19237998 2.51242089 -61.9375 4.75 C-51.82004244 13.81856347 -39.23295793 14.85877425 -26.2578125 14.22216797 C-16.80671112 13.29218286 -8.12396772 8.04319484 -1 2 C-0.67 1.34 -0.34 0.68 0 0 Z " fill="#FDEDFD" transform="translate(263,143)"/>
<path d="M0 0 C2.01403221 1.73729496 3.88072102 3.54662563 5.734375 5.453125 C16.79261606 16.22447773 28.6457597 17.92641722 43.4296875 17.73828125 C51.35510942 17.4603188 57.93419664 15.24617423 64.671875 11.140625 C67.734375 9.453125 67.734375 9.453125 70 9.625 C73.46380528 10.67403817 76.38486259 12.25895144 79.546875 14.015625 C80.14435547 14.34498047 80.74183594 14.67433594 81.35742188 15.01367188 C82.81971498 15.82085767 84.2775149 16.63617417 85.734375 17.453125 C74.90532819 40.76425068 44.77235478 53.76380038 21.99609375 62.50390625 C18.64631559 63.69181077 15.64568244 64.46535846 12.109375 64.953125 C8.68387268 65.2995031 8.68387268 65.2995031 5.609375 66.890625 C-7.655788 72.89083177 -26.74479871 72.09927766 -40.265625 67.453125 C-51.63105215 62.44287818 -58.44935399 56.36538579 -64.265625 45.453125 C-64.64074219 44.86789062 -65.01585938 44.28265625 -65.40234375 43.6796875 C-68.08329948 36.7650053 -67.28733402 26.8863678 -65.203125 19.8828125 C-59.45338327 7.66461132 -50.53251746 1.29397685 -38.09375 -3.359375 C-27.16524219 -6.40919113 -9.59814872 -6.55321878 0 0 Z " fill="#FDEDFD" transform="translate(160.265625,248.546875)"/>
<path d="M0 0 C2.9337357 0.91378653 5.01451388 2.15802634 7.55859375 3.87890625 C29.98140027 18.52727249 51.81364448 25.95237937 78.62109375 27.81640625 C79.85811035 27.90317627 79.85811035 27.90317627 81.12011719 27.99169922 C85.61875826 28.30021408 90.11831334 28.57438976 94.62109375 28.81640625 C87.40458601 44.62399463 68.86132434 53.37049024 53.37109375 59.19140625 C37.38914277 64.92357046 22.05793957 68.18313959 5.06835938 68.13208008 C2.88750653 68.12892996 0.70802932 68.15244039 -1.47265625 68.17773438 C-11.42260121 68.22264421 -20.68354026 67.01625792 -30.37890625 64.81640625 C-31.23323242 64.62296631 -32.08755859 64.42952637 -32.96777344 64.23022461 C-54.33224466 59.02134906 -74.04672314 47.52450978 -89.37890625 31.81640625 C-89.70890625 31.15640625 -90.03890625 30.49640625 -90.37890625 29.81640625 C-89.54568848 29.70683594 -88.7124707 29.59726562 -87.85400391 29.484375 C-57.99818786 25.45611187 -30.67641087 18.92806385 -5.37890625 1.81640625 C-2.37890625 -0.18359375 -2.37890625 -0.18359375 0 0 Z " fill="#FDEDFD" transform="translate(228.37890625,302.18359375)"/>
<path d="M0 0 C1.22847656 -0.00322266 2.45695312 -0.00644531 3.72265625 -0.00976562 C17.49849584 0.07144243 30.72688365 3.05440711 41.25 12.625 C47.50532523 19.78299241 48.81642289 27.67553774 48.50390625 36.98046875 C47.54929798 45.3751167 43.30011014 51.68575872 37.125 57.3125 C25.54522656 66.23945262 11.92031939 69.15334605 -2.33666992 68.85449219 C-4.44089384 68.81243216 -6.5419071 68.81347073 -8.64648438 68.8203125 C-20.74199594 68.76474961 -32.22680272 66.53054251 -43.6875 62.6875 C-44.43177246 62.43806641 -45.17604492 62.18863281 -45.94287109 61.93164062 C-57.43216327 57.89623542 -68.48825276 52.10150303 -77.875 44.3125 C-75.3553644 39.33904017 -71.68895018 36.06913867 -67.625 32.375 C-66.98175781 31.78009766 -66.33851563 31.18519531 -65.67578125 30.57226562 C-63.75504916 28.80418729 -61.81872602 27.0552448 -59.875 25.3125 C-59.25455811 24.74974365 -58.63411621 24.1869873 -57.99487305 23.60717773 C-54.87345616 20.83749349 -52.18410359 18.6380002 -48.1875 17.25 C-47.33800781 16.93546875 -46.48851562 16.6209375 -45.61328125 16.296875 C-44.25783203 15.80960937 -44.25783203 15.80960937 -42.875 15.3125 C-35.6582005 12.60500851 -29.44939824 9.68577054 -23.32421875 4.9609375 C-15.63620475 -0.2134515 -9.1131519 -0.11878457 0 0 Z " fill="#FDEDFD" transform="translate(317.875,249.6875)"/>
<path d="M0 0 C6.72416609 4.4827774 12.32140758 11.51745165 14.1796875 19.453125 C14.92133528 27.35550996 15.28138991 35.41940719 11.1796875 42.453125 C10.78910156 43.12730469 10.39851563 43.80148438 9.99609375 44.49609375 C5.33866596 51.5284139 -1.88671976 55.82838848 -9.8203125 58.453125 C-17.38269699 59.33032467 -24.65542461 59.27745084 -31.36328125 55.40625 C-38.02902834 50.10756392 -44.84295358 42.87040697 -46.8203125 34.453125 C-47.96513875 23.60740262 -46.79453522 15.79498323 -40.05859375 7.20703125 C-30.19537575 -3.69652617 -13.31993613 -6.36845431 0 0 Z " fill="#FDEDFD" transform="translate(245.8203125,85.546875)"/>
<path d="M0 0 C2.50063147 2.50063147 2.32420142 3.47811698 2.375 6.9375 C2.40335938 7.81277344 2.43171875 8.68804687 2.4609375 9.58984375 C2 12 2 12 0.1953125 13.7890625 C-3.03918448 15.57321564 -5.37272242 15.4534097 -9 15 C-11.4375 13.5 -11.4375 13.5 -13 11 C-13.61032075 8.19022146 -13.64823126 5.80517777 -13 3 C-9.11325552 -1.97989136 -5.65366056 -1.29756144 0 0 Z " fill="#BB1ECA" transform="translate(235,106)"/>
<path d="M0 0 C2.4375 0.9375 2.4375 0.9375 4 3 C4.62370264 6.80600361 5.06345027 10.50316874 2.75390625 13.75390625 C-0.49683126 16.06345027 -4.19399639 15.62370264 -8 15 C-10.0625 13.4375 -10.0625 13.4375 -11 11 C-11.48947291 7.08421671 -11.58879747 4.91852406 -9.4375 1.5625 C-6.08147594 -0.58879747 -3.91578329 -0.48947291 0 0 Z " fill="#BD1ECC" transform="translate(233,410)"/>
<path d="M0 0 C2 2 2 2 2.375 5.875 C2.27899431 8.80850708 2.05255079 9.91241536 0.5 12.5 C-3.25648836 14.75389302 -5.64579381 14.48380069 -10 14 C-12 13 -12 13 -13 11 C-13.39316878 7.90379585 -13.61768277 5.95775018 -13 3 C-9.11325552 -1.97989136 -5.65366056 -1.29756144 0 0 Z " fill="#BE1ECC" transform="translate(235,332)"/>
<path d="M0 0 C1.9375 1.0625 1.9375 1.0625 3 3 C3.52712685 6.55625014 3.93038484 9.70974932 1.7578125 12.72265625 C-1.05002349 14.76301707 -3.53569048 14.47513159 -6.90234375 14.34375 C-9 14 -9 14 -11.0625 12.4375 C-12.37882203 9.01506272 -12.51921468 6.63450273 -12 3 C-8.31376997 -1.46815761 -5.41712863 -1.50475795 0 0 Z " fill="#BD1FCC" transform="translate(234,24)"/>
<path d="M0 0 C3 1 3 1 4.1875 3.3125 C6.04002094 11.72009503 5.91726707 21.16546586 2 29 C1.34 29 0.68 29 0 29 C-2.26921244 23.55208919 -2.30036917 18.60915226 -2.25 12.8125 C-2.25773438 11.91080078 -2.26546875 11.00910156 -2.2734375 10.08007812 C-2.27085937 9.21447266 -2.26828125 8.34886719 -2.265625 7.45703125 C-2.26336914 6.67303955 -2.26111328 5.88904785 -2.25878906 5.08129883 C-2 3 -2 3 0 0 Z " fill="#FBECFB" transform="translate(229,202)"/>
<path d="M0 0 C0.66 0.33 1.32 0.66 2 1 C-7.9 10.9 -17.8 20.8 -28 31 C-28.66 30.67 -29.32 30.34 -30 30 C-24.65232404 23.84075262 -19.07010845 17.96212391 -13.3125 12.1875 C-12.68335693 11.55384521 -12.05421387 10.92019043 -11.40600586 10.26733398 C-7.75435008 6.62721126 -4.01385441 3.23697937 0 0 Z " fill="#A49BA4" transform="translate(80,51)"/>
<path d="M0 0 C0.99 0.33 1.98 0.66 3 1 C4.33599181 4.00598158 5.14345053 6.09147996 4.625 9.375 C4.41875 9.91125 4.2125 10.4475 4 11 C3.34 10.34 2.68 9.68 2 9 C1.01 9.33 0.02 9.66 -1 10 C-2.25 3.375 -2.25 3.375 0 0 Z " fill="#F5D9F7" transform="translate(229,202)"/>
<path d="M0 0 C4.14703594 3.04929113 8.27143834 6.5789095 11 11 C10.67 11.99 10.34 12.98 10 14 C2.1950222 7.77740126 2.1950222 7.77740126 0 3 C0 2.01 0 1.02 0 0 Z " fill="#B41EC6" transform="translate(200,125)"/>
<path d="M0 0 C-2.47783163 2.92300138 -4.9851711 3.97340327 -8.5625 5.25 C-10.01849609 5.78367188 -10.01849609 5.78367188 -11.50390625 6.328125 C-14 7 -14 7 -16 6 C-14.68 5.34 -13.36 4.68 -12 4 C-12 3.34 -12 2.68 -12 2 C-7.8794254 0.00214565 -4.54805635 -0.17835515 0 0 Z " fill="#B419C6" transform="translate(122,233)"/>
<path d="M0 0 C2 2 2 2 2 5 C-5.26 4.67 -12.52 4.34 -20 4 C-20 3.67 -20 3.34 -20 3 C-13.29980211 2.29867087 -6.73742646 1.88955039 0 2 C0 1.34 0 0.68 0 0 Z " fill="#F8DFF8" transform="translate(149,227)"/>
<path d="M0 0 C0.66 0 1.32 0 2 0 C1.44894091 3.9492568 0.61064629 7.34920174 -1 11 C-1.66 11 -2.32 11 -3 11 C-2.53199289 6.94393835 -2.12046792 3.53411321 0 0 Z " fill="#B61AC7" transform="translate(155,172)"/>
</svg>
